<?xml version="1.0" encoding="utf-8"?>
<!-- Generator: Adobe Illustrator 27.5.0, SVG Export Plug-In . SVG Version: 6.00 Build 0)  -->
<svg version="1.1" xmlns="http://www.w3.org/2000/svg" xmlns:xlink="http://www.w3.org/1999/xlink" x="0px" y="0px"
	 viewBox="0 0 500 500" style="enable-background:new 0 0 500 500;" xml:space="preserve">
<g>
		<path style="fill:#080808;" d="M276.148,217.217c0,11.351,9.202,20.554,20.553,20.554h34.739c11.352,0,20.554-9.202,20.554-20.554
			v-86.505l5.93,2.931c-0.192-3.201-3.803-5.625-5.93-6.852V98.574c0-18.921-15.339-34.26-34.26-34.26h-7.326
			c-18.921,0-34.26,15.339-34.26,34.26v28.216c-2.127,1.228-5.738,3.652-5.93,6.852l5.93-2.931V217.217z"/>
		<g>
			<path style="fill:#50CECD;" d="M261.555,124.98c0.192-3.201,3.803-5.625,5.93-6.852V89.911c0-18.921,15.339-34.26,34.26-34.26
				h7.326c18.921,0,34.26,15.339,34.26,34.26v28.216c2.126,1.228,5.738,3.652,5.93,6.852l-5.93-2.931v86.506
				c0,11.351-9.202,20.553-20.554,20.553h-34.739c-11.351,0-20.554-9.202-20.554-20.553v-86.506L261.555,124.98z"/>
			<path style="fill:#81E0DB;" d="M290.174,224.224h30.468c11.352,0,17.478-11.257,17.478-22.609l3.075-106.821
				c0-18.921-15.339-34.26-34.26-34.26h-3.055c-18.921,0-34.26,15.339-34.26,34.26l3.075,106.821
				C272.695,212.967,278.822,224.224,290.174,224.224z"/>
			<path style="fill:#45474A;" d="M339.096,159.592c0.453-0.166,0.907-0.332,1.36-0.498v0.116c0,16.172-2.336,42.406-2.336,42.406
				s-6.648,3.234-6.648-14.914c0-7.762-0.065-16.247,0-24.373C334.018,161.428,336.561,160.52,339.096,159.592z"/>
			<path style="fill:#45474A;" d="M331.509,158.872c0.128-9.562,0.482-18.393,1.4-24.639c1.797-12.219,7.547-30.367,7.547-30.367
				s0,33.19,0,51.079C337.499,156.311,334.51,157.606,331.509,158.872z"/>
			<path style="fill:#45474A;" d="M271.719,159.592c-0.453-0.166-0.907-0.332-1.36-0.498v0.116c0,16.172,2.336,42.406,2.336,42.406
				s6.648,3.234,6.648-14.914c0-7.762,0.065-16.247,0-24.373C276.798,161.428,274.255,160.52,271.719,159.592z"/>
			<path style="fill:#45474A;" d="M279.307,158.872c-0.128-9.562-0.482-18.393-1.4-24.639c-1.797-12.219-7.547-30.367-7.547-30.367
				s0,33.19,0,51.079C273.317,156.311,276.305,157.606,279.307,158.872z"/>
			<path style="fill:#45474A;" d="M271.719,159.592c-0.453-0.166-0.907-0.332-1.36-0.498v0.116c0,16.172,2.336,42.406,2.336,42.406
				s6.648,3.234,6.648-14.914c0-7.762,0.065-16.247,0-24.373C276.798,161.428,274.255,160.52,271.719,159.592z"/>
			<path style="fill:#45474A;" d="M279.307,158.872c-0.128-9.562-0.482-18.393-1.4-24.639c-1.797-12.219-7.547-30.367-7.547-30.367
				s0,33.19,0,51.079C273.317,156.311,276.305,157.606,279.307,158.872z"/>
			<path style="fill:#45474A;" d="M305.408,89.492c-21.553,0-30.542,10.602-30.542,10.602l5.735,31.984h24.806h24.806l5.735-31.984
				C335.949,100.093,326.961,89.492,305.408,89.492z"/>
			<path style="fill:#E9E8D8;" d="M335.949,73.265c-0.113,0.494-0.46,0.945-0.953,1.016c-0.421,0.06-0.827-0.16-1.189-0.382
				c-4.933-3.014-8.708-7.86-10.462-13.365C328.702,63.434,333.1,67.877,335.949,73.265z"/>
			<path style="fill:#E9E8D8;" d="M274.866,73.265c0.113,0.494,0.46,0.945,0.953,1.016c0.421,0.06,0.827-0.16,1.189-0.382
				c4.933-3.014,8.708-7.86,10.462-13.365C282.114,63.434,277.715,67.877,274.866,73.265z"/>
			<path style="fill:#FFCC00;" d="M274.866,216.71l4.507,8.086l4.642-11.141l-3.362-1.849c-0.703-0.387-1.582-0.217-2.092,0.403
				L274.866,216.71z"/>
			<path style="fill:#FFCC00;" d="M335.949,216.71l-4.507,8.086l-4.643-11.141l3.362-1.849c0.703-0.387,1.582-0.217,2.092,0.403
				L335.949,216.71z"/>
			<path style="fill:#45474A;" d="M326.8,213.655c-5.391,2.336-21.392,2.156-21.392,2.156s-16.002,0.18-21.392-2.156l-4.642,11.141
				c4.521,3.055,26.035,2.336,26.035,2.336s21.513,0.719,26.035-2.336L326.8,213.655z"/>
		</g>
	</g>
</svg>
